<svg width="46" height="46" viewBox="0 0 46 46" fill="none" xmlns="http://www.w3.org/2000/svg"><path d="M32.657 0H13.344a3.382 3.382 0 0 0-3.378 3.377v39.245A3.382 3.382 0 0 0 13.344 46h19.312a3.382 3.382 0 0 0 3.378-3.377V3.377A3.382 3.382 0 0 0 32.657 0zM11.5 6.133h23v29.134h-23V6.133zm1.844-4.6h19.312c1.017 0 1.844.828 1.844 1.844V4.6h-23V3.377c0-1.016.827-1.844 1.844-1.844zm19.313 42.934H13.344a1.846 1.846 0 0 1-1.844-1.844V36.8h23v5.823a1.846 1.846 0 0 1-1.843 1.844z" fill="#333"/><path d="M23 37.566a3.07 3.07 0 0 0-3.067 3.067A3.07 3.07 0 0 0 23 43.7a3.07 3.07 0 0 0 3.067-3.067A3.07 3.07 0 0 0 23 37.566zm0 4.6a1.535 1.535 0 0 1-1.534-1.533 1.535 1.535 0 0 1 3.067 0c0 .846-.687 1.533-1.533 1.533zM19.933 3.833H23A.766.766 0 1 0 23 2.3h-3.067a.766.766 0 1 0 0 1.533zm5.367 0h.767a.766.766 0 1 0 0-1.533H25.3a.766.766 0 1 0 0 1.533zm18.103-.33a.766.766 0 1 0-1.084 1.084c2.864 2.864 2.864 7.525 0 10.39a.766.766 0 1 0 1.084 1.084c3.462-3.461 3.462-9.096 0-12.558z" fill="#333"/><path d="M40.174 5.248a.766.766 0 1 0-1.084 1.084 4.996 4.996 0 0 1 1.47 3.557 4.994 4.994 0 0 1-1.47 3.556.766.766 0 1 0 1.084 1.084 6.516 6.516 0 0 0 1.92-4.64c0-1.754-.68-3.403-1.92-4.64zM3.68 4.587a.766.766 0 1 0-1.083-1.084c-3.463 3.462-3.463 9.096 0 12.558a.765.765 0 0 0 1.084 0c.3-.3.3-.784 0-1.084-2.865-2.864-2.865-7.525 0-10.39z" fill="#333"/><path d="M6.91 5.035c-.3-.3-.785-.3-1.084 0a6.516 6.516 0 0 0-1.92 4.64c0 1.754.681 3.403 1.92 4.64a.765.765 0 0 0 1.084 0c.3-.299.3-.783 0-1.083a4.996 4.996 0 0 1-1.47-3.557 4.99 4.99 0 0 1 1.47-3.556.767.767 0 0 0 0-1.084z" fill="#333"/></svg>