<svg width="19" height="19" viewBox="0 0 19 19" fill="none" xmlns="http://www.w3.org/2000/svg">
<path d="M10.7127 1.31354C8.96084 -0.438194 6.11006 -0.437502 4.35784 1.31354L1.18039 4.49073C0.910421 4.76068 0.910421 5.19827 1.18039 5.46822C1.45037 5.73817 1.88799 5.73817 2.15796 5.46822L5.3354 2.29103C5.91994 1.70689 6.70117 1.38475 7.53493 1.38475C8.36905 1.38475 9.15027 1.70689 9.73481 2.29138C10.3193 2.87587 10.6415 3.65703 10.6415 4.49108C10.6415 5.32478 10.3193 6.10594 9.73481 6.69043L5.58014 10.8458C4.36682 12.0583 2.39337 12.0583 1.18005 10.8458C0.910076 10.5758 0.472451 10.5758 0.202479 10.8458C-0.0674931 11.1157 -0.0674931 11.5537 0.202479 11.8233C1.07842 12.6992 2.22917 13.1371 3.37992 13.1371C4.53067 13.1371 5.68143 12.6992 6.55737 11.8233L10.7127 7.66826C11.5586 6.82281 12.0246 5.69427 12.0246 4.49108C12.0246 3.28753 11.5586 2.15934 10.7127 1.31354Z" transform="translate(6.97546)" fill="black"/>
<path d="M9.37781 7.91276L6.68915 10.6012C6.10462 11.1857 5.32339 11.5078 4.48928 11.5078C3.65551 11.5078 2.87394 11.1857 2.2894 10.6012C1.07643 9.38833 1.07643 7.41469 2.2894 6.20181L6.20037 2.29116C6.78491 1.70702 7.56613 1.38488 8.40024 1.38488C9.23401 1.38488 10.0152 1.70702 10.5998 2.29116C10.8697 2.56111 11.3074 2.56111 11.5773 2.29116C11.8473 2.02121 11.8473 1.58362 11.5773 1.31367C9.82581 -0.437718 6.97503 -0.438064 5.22246 1.31367L1.31149 5.22467C0.46597 6.07012 0 7.19866 0 8.40185C0 9.6047 0.46597 10.7332 1.31184 11.5787C2.15736 12.4245 3.28598 12.8904 4.48893 12.8904C5.69223 12.8904 6.82086 12.4245 7.66638 11.5787L10.355 8.89025C10.625 8.6203 10.625 8.18271 10.355 7.91276C10.0851 7.64281 9.64778 7.64281 9.37781 7.91276Z" transform="translate(0 6.10938)" fill="black"/>
</svg>
