<svg xmlns="http://www.w3.org/2000/svg" width="88" height="56.01" viewBox="0 0 88 56.01">
  <path class='arr-blog-inside-arr' d="M21.29,39.29a1,1,0,1,0,1.3,1.52l.11-.11,12-12a1,1,0,0,0,0-1.42l-12-12a1,1,0,0,0-1.41,1.41L31.59,27H1a1,1,0,0,0,0,2H31.59Z" transform="translate(0 0.01)"/>
  <path class='arr-blog-inside-block' d="M86.72,0H39.53a1.16,1.16,0,0,0-1.28,1V22a1.31,1.31,0,0,0,2.55,0V2H85.45V54H40.8V34a1.31,1.31,0,0,0-2.55,0V55a1.16,1.16,0,0,0,1.28,1h47.2A1.16,1.16,0,0,0,88,55V1A1.16,1.16,0,0,0,86.72,0Z" transform="translate(0 0.01)"/>
</svg>
