<svg xmlns="http://www.w3.org/2000/svg" xmlns:xlink="http://www.w3.org/1999/xlink" viewBox="0 0 214.23 152.91"><defs><style>.a,.b{fill-rule:evenodd;}.a{fill:url(#a);}.b,.c{fill:#1f1b20;}</style><linearGradient id="a" x1="-259.8" y1="342.89" x2="-197.58" y2="245.78" gradientUnits="userSpaceOnUse"><stop offset="0" stop-color="#4a58a5"/><stop offset="0.44" stop-color="#6958a4"/><stop offset="1" stop-color="#f24a41"/></linearGradient></defs><title>logo</title><path class="a" d="M-210.41,365.75h0l0,.06a16,16,0,0,1-21.83,5.85c-10.44-6-6.26-20.43-21.68-27.24-10-4.39-17.66-.47-25.73,1-13,2.44-25.68-5.76-27.18-19.21-1.3-11.67,6.16-23,17.8-25.32,7-1.42,14.63-.28,23.19-4.64,9.79-5,14.08-11.94,16.15-19.65,3.5-13.08.6-28.35,7.15-40,9.81-17.43,37.44-21.22,51.64-5.81,16.17,17.54,8,47.6-14.48,54.09-9.65,2.79-20.18,1.17-29.86,2.95-8.1,1.48-15.6,5.33-21.5,16.1-6.63,12.11-5.77,25.73,5.84,34.51,13.64,10.32,24.2-.7,34.71,5.37a16,16,0,0,1,5.85,21.83Z" transform="translate(307.02 -221.18)"/><path class="b" d="M-177.83,297.51H-181l-2.39,0a.69.69,0,0,0-.35.1,1.09,1.09,0,0,0-.53.93v13.76a1,1,0,0,0,.69,1,9.37,9.37,0,0,0,2,.1h3.74a5.85,5.85,0,0,0,5.76-3.61,10.62,10.62,0,0,0,1-4.59,8.62,8.62,0,0,0-1.6-5.37,6.1,6.1,0,0,0-5.1-2.33Zm-.42,14.06h-3.86V299.36h3.84A4.33,4.33,0,0,1-174.5,301a7.64,7.64,0,0,1,1.18,4.59,9.11,9.11,0,0,1-.16,1.66,6.28,6.28,0,0,1-.93,2.46,4,4,0,0,1-2,1.64A5.92,5.92,0,0,1-178.25,311.57Z" transform="translate(307.02 -221.18)"/><path class="b" d="M-155.91,327.73a8.13,8.13,0,0,0-3.88-.86,6.87,6.87,0,0,0-5.32,2.26,9,9,0,0,0-2.17,6.34,8.78,8.78,0,0,0,2.22,6.32,7,7,0,0,0,4.88,1.82,7.18,7.18,0,0,0,3.59-.8,7.76,7.76,0,0,0,1.87-1.57v1.07a1.09,1.09,0,0,0,1.09,1.09h0c.6,0,.82-.49.82-1.09v-6.48c0-1-.61-1.09-1.37-1.14s-1.75,0-2.18,0h-2.71a.94.94,0,0,0-.94.94h0a.94.94,0,0,0,.94.94h4.32a5.13,5.13,0,0,1-1.44,4,5.13,5.13,0,0,1-3.57,1.26,4.61,4.61,0,0,1-4.06-1.8,7.93,7.93,0,0,1-1.24-4.61,7.17,7.17,0,0,1,1.51-4.94,4.89,4.89,0,0,1,3.72-1.64,5.53,5.53,0,0,1,3.08.78,3.43,3.43,0,0,1,1.18,1.32c.63,1.21.74,1.22,1.4,1.23h.28c.39,0,1,0,.58-1.24A5.34,5.34,0,0,0-155.91,327.73Z" transform="translate(307.02 -221.18)"/><path class="b" d="M-109.17,358.93a6.53,6.53,0,0,0-4.7-1.6,6.76,6.76,0,0,0-5.54,2.46,8.7,8.7,0,0,0-1.86,5.76c0,3.08.82,5.37,2.48,6.85a6.75,6.75,0,0,0,4.66,1.69A6.6,6.6,0,0,0-109,372a6.33,6.33,0,0,0,1.64-3c.26-1.2.26-1.19-.65-1.22h-.29c-.9.06-.83-.09-1.23,1.1a5.61,5.61,0,0,1-.7,1.45,4.12,4.12,0,0,1-3.64,1.82,4.52,4.52,0,0,1-3.88-1.75,7.35,7.35,0,0,1-1.31-4.52,7.6,7.6,0,0,1,1.44-5.06,4.87,4.87,0,0,1,3.79-1.64,4.61,4.61,0,0,1,3,.89,4.3,4.3,0,0,1,1,1.35c.54,1.1.48,1.15,1.25,1.09h.41c.66.07,1-.13.53-1.31A6,6,0,0,0-109.17,358.93Z" transform="translate(307.02 -221.18)"/><rect class="c" x="114.33" y="76.33" width="2.17" height="15.9" rx="1.09" ry="1.09"/><path class="b" d="M-163.88,299.67v4.71h7.63a1.09,1.09,0,0,1,1.09,1.09h0a1.09,1.09,0,0,1-1.09,1.09h-7.63v4.75h8.51a1.09,1.09,0,0,1,1.09,1.09h0a1.09,1.09,0,0,1-1.09,1.09H-165a1.09,1.09,0,0,1-1.09-1.09h0V298.58h0A1.09,1.09,0,0,1-165,297.5h9.42a1.09,1.09,0,0,1,1.09,1.09h0a1.09,1.09,0,0,1-1.09,1.09Z" transform="translate(307.02 -221.18)"/><path class="b" d="M-144,297.48a1.09,1.09,0,0,1,1,.73l4.87,13.87a1.09,1.09,0,0,1-.67,1.38h0a1.09,1.09,0,0,1-1.38-.67l-1.37-3.9h-6.06l-.25,0-1.38,3.93a1.09,1.09,0,0,1-1.38.67h0a1.09,1.09,0,0,1-.67-1.38l4.87-13.87a1.09,1.09,0,0,1,1-.73c.33,0,1,0,1.41,0Zm1.71,9.24-2.4-6.82-2.4,6.82Z" transform="translate(307.02 -221.18)"/><path class="b" d="M-186.17,327.14h-3.19l-2.39,0a.69.69,0,0,0-.35.1,1.09,1.09,0,0,0-.53.93V342a1,1,0,0,0,.69,1,9.37,9.37,0,0,0,2,.1h3.74a5.85,5.85,0,0,0,5.76-3.61,10.63,10.63,0,0,0,1-4.59,8.62,8.62,0,0,0-1.6-5.37,6.1,6.1,0,0,0-5.1-2.33Zm-.42,14.06h-3.86V329h3.84a4.33,4.33,0,0,1,3.77,1.64,7.64,7.64,0,0,1,1.18,4.59,9.08,9.08,0,0,1-.16,1.66,6.28,6.28,0,0,1-.93,2.46,3.94,3.94,0,0,1-2,1.64A5.92,5.92,0,0,1-186.59,341.19Z" transform="translate(307.02 -221.18)"/><rect class="c" x="132.53" y="106.1" width="2.17" height="15.9" rx="1.09" ry="1.09"/><rect class="c" x="160.17" y="106.04" width="2.17" height="15.9" rx="1.09" ry="1.09"/><path class="b" d="M-120.74,327.17a1.09,1.09,0,0,1,1,.73l4.87,13.87a1.09,1.09,0,0,1-.67,1.38h0a1.09,1.09,0,0,1-1.38-.67l-1.37-3.9h-6.06l-.25,0-1.38,3.93a1.09,1.09,0,0,1-1.38.67h0a1.09,1.09,0,0,1-.67-1.38l4.87-13.87a1.09,1.09,0,0,1,1-.73c.33,0,1,0,1.4,0Zm1.71,9.24-2.4-6.82-2.4,6.82Z" transform="translate(307.02 -221.18)"/><path class="b" d="M-185.69,357.66a1.09,1.09,0,0,1,1,.73l4.87,13.87a1.09,1.09,0,0,1-.67,1.38h0a1.09,1.09,0,0,1-1.38-.67l-1.37-3.9h-6.06l-.25,0-1.38,3.93a1.09,1.09,0,0,1-1.38.67h0a1.09,1.09,0,0,1-.67-1.38l4.87-13.87a1.09,1.09,0,0,1,1-.73c.33,0,1,0,1.4,0Zm1.71,9.24-2.4-6.82-2.4,6.82Z" transform="translate(307.02 -221.18)"/><path class="b" d="M-153.39,359.89v4.71h7.63a1.09,1.09,0,0,1,1.09,1.09h0a1.09,1.09,0,0,1-1.09,1.09h-7.63v4.75h8.51a1.09,1.09,0,0,1,1.09,1.09h0a1.09,1.09,0,0,1-1.09,1.09h-9.6a1.09,1.09,0,0,1-1.09-1.09h0V358.8h0a1.09,1.09,0,0,1,1.09-1.08h9.42A1.09,1.09,0,0,1-144,358.8h0a1.09,1.09,0,0,1-1.09,1.09Z" transform="translate(307.02 -221.18)"/><path class="b" d="M-134.09,329.44v12.77a1.09,1.09,0,0,1-1.09,1.09h0a1.09,1.09,0,0,1-1.09-1.09V329.44h-4.29a1.09,1.09,0,0,1-1.09-1.09h0a1.09,1.09,0,0,1,1.09-1.09h10.75a1.09,1.09,0,0,1,1.09,1.09h0a1.09,1.09,0,0,1-1.09,1.09Z" transform="translate(307.02 -221.18)"/><path class="b" d="M-100.66,342.17h0a1.09,1.09,0,0,1-1.09,1.09h-8a1.09,1.09,0,0,1-1.08-1,1.08,1.08,0,0,1-.05-.33V328.22a1.09,1.09,0,0,1,1.09-1.09h0a1.09,1.09,0,0,1,1.08,1.09v12.86h7A1.09,1.09,0,0,1-100.66,342.17Z" transform="translate(307.02 -221.18)"/><path class="b" d="M-164.62,358.22a8.12,8.12,0,0,0-3.88-.86,6.87,6.87,0,0,0-5.32,2.26A9,9,0,0,0-176,366a8.78,8.78,0,0,0,2.22,6.32,7,7,0,0,0,4.88,1.82,7.18,7.18,0,0,0,3.59-.8,7.77,7.77,0,0,0,1.87-1.57v1.07a1.09,1.09,0,0,0,1.09,1.09h0c.6,0,.82-.49.82-1.09v-6.48c0-1-.61-1.09-1.37-1.14s-1.75,0-2.18,0h-2.71a.94.94,0,0,0-.94.94h0a.94.94,0,0,0,.94.94h4.32a5.13,5.13,0,0,1-1.44,4,5.13,5.13,0,0,1-3.57,1.26,4.61,4.61,0,0,1-4.06-1.8,7.93,7.93,0,0,1-1.24-4.61,7.17,7.17,0,0,1,1.51-4.94,4.89,4.89,0,0,1,3.72-1.64,5.53,5.53,0,0,1,3.08.78,3.43,3.43,0,0,1,1.18,1.32c.63,1.21.74,1.22,1.4,1.23h.28c.39,0,1,0,.58-1.24A5.34,5.34,0,0,0-164.62,358.22Z" transform="translate(307.02 -221.18)"/><path class="b" d="M-127.06,357.69h0a1.09,1.09,0,0,1,1.09,1.09V372.5c0,1.32-2.33,1.42-2.83.65l-7.77-12.08V372.5a1.09,1.09,0,0,1-1.09,1.09h0a1.09,1.09,0,0,1-1.09-1.09V358.78c0-1.42,2.39-1.39,2.89-.61l7.7,12V358.78A1.09,1.09,0,0,1-127.06,357.69Z" transform="translate(307.02 -221.18)"/><path class="b" d="M-97.89,366.93v5.84A1.09,1.09,0,0,1-99,373.85h0a1.09,1.09,0,0,1-1.09-1.09v-5.65l-5.05-7.74a1.09,1.09,0,0,1,.32-1.5h0a1.09,1.09,0,0,1,1.5.32l4.26,6.52,4.26-6.52a1.09,1.09,0,0,1,1.5-.32h0a1.09,1.09,0,0,1,.32,1.5Z" transform="translate(307.02 -221.18)"/></svg>