<svg xmlns="http://www.w3.org/2000/svg" xmlns:xlink="http://www.w3.org/1999/xlink" viewBox="0 0 214.17 153.03"><defs><style>.a{fill:url(#a);}.b{fill:#1f1b20;}</style><linearGradient id="a" x1="-259.78" y1="-188.9" x2="-197.56" y2="-91.79" gradientTransform="matrix(1, 0, 0, -1, 307.02, -67.18)" gradientUnits="userSpaceOnUse"><stop offset="0" stop-color="#4a58a5"/><stop offset="0.44" stop-color="#6958a4"/><stop offset="1" stop-color="#f24a41"/></linearGradient></defs><title>logo</title><path class="a" d="M96.61,144.57h0v.06a16,16,0,0,1-21.83,5.85c-10.44-6-6.26-20.43-21.68-27.24-10-4.39-17.66-.47-25.73,1C14.37,126.68,1.69,118.48.19,105-1.11,93.36,6.35,82,18,79.71c7-1.42,14.63-.28,23.19-4.64,9.79-5,14.08-11.94,16.15-19.65,3.5-13.08.6-28.35,7.15-40C74.29-2,101.92-5.8,116.12,9.61c16.17,17.54,8,47.6-14.48,54.09-9.65,2.79-20.18,1.17-29.86,3-8.1,1.48-15.6,5.33-21.5,16.1-6.63,12.11-5.77,25.73,5.84,34.51,13.64,10.32,24.2-.7,34.71,5.37a16,16,0,0,1,5.85,21.83Z" transform="translate(-0.04 0.06)"/><path class="b" d="M129.19,76.33h-5.56a.69.69,0,0,0-.35.1,1.09,1.09,0,0,0-.53.93V91.12a1,1,0,0,0,.69,1,9.37,9.37,0,0,0,2,.1h3.74a5.85,5.85,0,0,0,5.76-3.61,10.62,10.62,0,0,0,1-4.59,8.62,8.62,0,0,0-1.6-5.37,6.1,6.1,0,0,0-5.1-2.33Zm-.42,14.06h-3.86V78.18h3.84a4.33,4.33,0,0,1,3.77,1.64,7.64,7.64,0,0,1,1.18,4.59,9.11,9.11,0,0,1-.16,1.66,6.28,6.28,0,0,1-.93,2.46,4,4,0,0,1-2,1.64A5.92,5.92,0,0,1,128.77,90.39Z" transform="translate(-0.04 0.06)"/><path class="b" d="M151.11,106.55a8.13,8.13,0,0,0-3.88-.86,6.87,6.87,0,0,0-5.32,2.26,9,9,0,0,0-2.17,6.34,8.78,8.78,0,0,0,2.22,6.32,7,7,0,0,0,4.88,1.82,7.18,7.18,0,0,0,3.59-.8,7.76,7.76,0,0,0,1.87-1.57v1.07a1.09,1.09,0,0,0,1.09,1.09h0c.6,0,.82-.49.82-1.09v-6.48c0-1-.61-1.09-1.37-1.14s-1.75,0-2.18,0h-2.71a.94.94,0,0,0-.94.94h0a.94.94,0,0,0,.94.94h4.32a4.69,4.69,0,0,1-5,5.26,4.61,4.61,0,0,1-4.06-1.8,7.93,7.93,0,0,1-1.24-4.61,7.17,7.17,0,0,1,1.51-4.94,4.89,4.89,0,0,1,3.72-1.64,5.53,5.53,0,0,1,3.08.78,3.43,3.43,0,0,1,1.18,1.32c.63,1.21.74,1.22,1.4,1.23h.28c.39,0,1,0,.58-1.24A5.34,5.34,0,0,0,151.11,106.55Z" transform="translate(-0.04 0.06)"/><path class="b" d="M197.85,137.75a6.53,6.53,0,0,0-4.7-1.6,6.76,6.76,0,0,0-5.54,2.46,8.7,8.7,0,0,0-1.86,5.76c0,3.08.82,5.37,2.48,6.85a6.75,6.75,0,0,0,4.66,1.69,6.6,6.6,0,0,0,5.13-2.09,6.33,6.33,0,0,0,1.64-3c.26-1.2.26-1.19-.65-1.22h-.29c-.9.06-.83-.09-1.23,1.1a5.61,5.61,0,0,1-.7,1.45,4.12,4.12,0,0,1-3.64,1.82,4.52,4.52,0,0,1-3.88-1.75A7.35,7.35,0,0,1,188,144.7a7.6,7.6,0,0,1,1.44-5.06,4.87,4.87,0,0,1,3.79-1.64,4.61,4.61,0,0,1,3,.89,4.3,4.3,0,0,1,1,1.35c.54,1.1.48,1.15,1.25,1.09h.41c.66.07,1-.13.53-1.31A6,6,0,0,0,197.85,137.75Z" transform="translate(-0.04 0.06)"/><path class="b" d="M115.42,76.33h0a1.09,1.09,0,0,1,1.08,1.09V91.14a1.09,1.09,0,0,1-1.08,1.09h0a1.09,1.09,0,0,1-1.08-1.09V77.42A1.09,1.09,0,0,1,115.42,76.33Z" transform="translate(-0.04 0.06)"/><path class="b" d="M143.14,78.49V83.2h7.63a1.09,1.09,0,0,1,1.09,1.09h0a1.09,1.09,0,0,1-1.09,1.09h-7.63v4.75h8.51a1.09,1.09,0,0,1,1.09,1.09h0a1.09,1.09,0,0,1-1.09,1.09H142a1.09,1.09,0,0,1-1.09-1.09h0V77.4h0A1.09,1.09,0,0,1,142,76.32h9.42a1.09,1.09,0,0,1,1.09,1.09h0a1.09,1.09,0,0,1-1.09,1.09Z" transform="translate(-0.04 0.06)"/><path class="b" d="M163,76.3a1.09,1.09,0,0,1,1,.73l4.87,13.87a1.09,1.09,0,0,1-.67,1.38h0a1.09,1.09,0,0,1-1.38-.67l-1.37-3.9h-6.31l-1.38,3.93a1.09,1.09,0,0,1-1.38.67h0a1.09,1.09,0,0,1-.67-1.38l4.87-13.87a1.09,1.09,0,0,1,1-.73H163Zm1.71,9.24-2.4-6.82-2.4,6.82Z" transform="translate(-0.04 0.06)"/><path class="b" d="M120.85,106h-5.58a.69.69,0,0,0-.35.1,1.09,1.09,0,0,0-.53.93v13.83a1,1,0,0,0,.69,1,9.37,9.37,0,0,0,2,.1h3.74a5.85,5.85,0,0,0,5.76-3.61,10.63,10.63,0,0,0,1-4.59,8.62,8.62,0,0,0-1.6-5.37,6.1,6.1,0,0,0-5.1-2.33ZM120.43,120h-3.86v-12.2h3.84a4.33,4.33,0,0,1,3.77,1.64,7.64,7.64,0,0,1,1.18,4.59,9.08,9.08,0,0,1-.16,1.66,6.28,6.28,0,0,1-.93,2.46,3.94,3.94,0,0,1-2,1.64,5.92,5.92,0,0,1-1.84.2Z" transform="translate(-0.04 0.06)"/><path class="b" d="M133.62,106.1h0a1.09,1.09,0,0,1,1.09,1.09v13.72a1.09,1.09,0,0,1-1.09,1.09h0a1.09,1.09,0,0,1-1.09-1.09V107.19A1.09,1.09,0,0,1,133.62,106.1Z" transform="translate(-0.04 0.06)"/><path class="b" d="M161.26,106h0a1.09,1.09,0,0,1,1.09,1.09v13.72a1.09,1.09,0,0,1-1.09,1.09h0a1.09,1.09,0,0,1-1.09-1.09V107.13A1.09,1.09,0,0,1,161.26,106Z" transform="translate(-0.04 0.06)"/><path class="b" d="M186.28,106a1.09,1.09,0,0,1,1,.73l4.87,13.87a1.09,1.09,0,0,1-.67,1.38h0a1.09,1.09,0,0,1-1.38-.67l-1.37-3.9h-6.31L181,121.33a1.09,1.09,0,0,1-1.38.67h0a1.09,1.09,0,0,1-.67-1.38l4.87-13.87a1.09,1.09,0,0,1,1-.73h1.4Zm1.71,9.24-2.4-6.82-2.4,6.82Z" transform="translate(-0.04 0.06)"/><path class="b" d="M121.33,136.48a1.09,1.09,0,0,1,1,.73l4.87,13.87a1.09,1.09,0,0,1-.67,1.38h0a1.09,1.09,0,0,1-1.38-.67l-1.37-3.9h-6.31l-1.38,3.93a1.09,1.09,0,0,1-1.38.67h0a1.09,1.09,0,0,1-.67-1.38l4.87-13.87a1.09,1.09,0,0,1,1-.73h1.4Zm1.71,9.24-2.4-6.82-2.4,6.82Z" transform="translate(-0.04 0.06)"/><path class="b" d="M153.63,138.71v4.71h7.63a1.09,1.09,0,0,1,1.09,1.09h0a1.09,1.09,0,0,1-1.09,1.09h-7.63v4.75h8.51a1.09,1.09,0,0,1,1.09,1.09h0a1.09,1.09,0,0,1-1.09,1.09h-9.6a1.09,1.09,0,0,1-1.09-1.09h0V137.62h0a1.09,1.09,0,0,1,1.09-1.08H162a1.09,1.09,0,0,1,1.06,1.08h0a1.09,1.09,0,0,1-1.09,1.09Z" transform="translate(-0.04 0.06)"/><path class="b" d="M172.93,108.26V121a1.09,1.09,0,0,1-1.09,1.09h0a1.09,1.09,0,0,1-1.09-1.09V108.26h-4.29a1.09,1.09,0,0,1-1.09-1.09h0a1.09,1.09,0,0,1,1.09-1.09h10.75a1.09,1.09,0,0,1,1.09,1.09h0a1.09,1.09,0,0,1-1.09,1.09Z" transform="translate(-0.04 0.06)"/><path class="b" d="M206.36,121h0a1.09,1.09,0,0,1-1.09,1.09h-8a1.4,1.4,0,0,1-1.13-1.33V107a1.09,1.09,0,0,1,1.09-1.09h0a1.09,1.09,0,0,1,1.08,1.09V119.9h7A1.09,1.09,0,0,1,206.36,121Z" transform="translate(-0.04 0.06)"/><path class="b" d="M142.4,137a8.12,8.12,0,0,0-3.88-.86,6.87,6.87,0,0,0-5.32,2.26,9,9,0,0,0-2.18,6.38,8.78,8.78,0,0,0,2.22,6.32,7,7,0,0,0,4.88,1.82,7.18,7.18,0,0,0,3.59-.8,7.77,7.77,0,0,0,1.87-1.57v1.07a1.09,1.09,0,0,0,1.09,1.09h0c.6,0,.82-.49.82-1.09v-6.48c0-1-.61-1.09-1.37-1.14s-1.75,0-2.18,0h-2.71a.94.94,0,0,0-.94.94h0a.94.94,0,0,0,.94.94h4.32a4.69,4.69,0,0,1-5,5.26,4.61,4.61,0,0,1-4.06-1.8,7.93,7.93,0,0,1-1.24-4.61,7.17,7.17,0,0,1,1.51-4.94,4.89,4.89,0,0,1,3.72-1.64,5.53,5.53,0,0,1,3.08.78,3.43,3.43,0,0,1,1.18,1.32c.63,1.21.74,1.22,1.4,1.23h.28c.39,0,1,0,.58-1.24A5.34,5.34,0,0,0,142.4,137Z" transform="translate(-0.04 0.06)"/><path class="b" d="M180,136.51h0A1.09,1.09,0,0,1,181,137.6v13.72c0,1.32-2.33,1.42-2.83.65l-7.77-12.08v11.43a1.09,1.09,0,0,1-1.09,1.09h0a1.09,1.09,0,0,1-1.09-1.09V137.6c0-1.42,2.39-1.39,2.89-.61l7.7,12V137.6a1.09,1.09,0,0,1,1.09-1.09Z" transform="translate(-0.04 0.06)"/><path class="b" d="M209.13,145.75v5.84a1.09,1.09,0,0,1-1.1,1.08h0a1.09,1.09,0,0,1-1.09-1.09v-5.65l-5.05-7.74a1.09,1.09,0,0,1,.32-1.5h0a1.09,1.09,0,0,1,1.5.32l4.26,6.52,4.26-6.52a1.09,1.09,0,0,1,1.5-.32h0a1.09,1.09,0,0,1,.32,1.5Z" transform="translate(-0.04 0.06)"/></svg>