<?xml version="1.0" encoding="UTF-8"?>
<svg width="201px" height="60px" viewBox="0 0 201 60" version="1.1" xmlns="http://www.w3.org/2000/svg" xmlns:xlink="http://www.w3.org/1999/xlink">
    <!-- Generator: Sketch 48.2 (47327) - http://www.bohemiancoding.com/sketch -->
    <title>frontier-infrastructure-logo</title>
    <desc>Created with Sketch.</desc>
    <defs></defs>
    <g id="Footer-/-Desktop-1440" stroke="none" stroke-width="1" fill="none" fill-rule="evenodd" transform="translate(-190.000000, -60.000000)">
        <g fill="#FFFFFF" fill-rule="nonzero" id="frontier-infrastructure-logo">
            <g transform="translate(190.000000, 60.000000)">
                <g id="Group" transform="translate(75.786885, 30.989011)">
                    <path d="M0.164754098,2.6043956 L0.164754098,0.263736264 L3.22918033,0.263736264 L3.22918033,2.6043956 L0.164754098,2.6043956 Z M0.164754098,13.978022 L0.164754098,3.69230769 L3.22918033,3.69230769 L3.22918033,13.978022 L0.164754098,13.978022 Z" id="Shape"></path>
                    <path d="M11.9281967,13.978022 L11.9281967,8.37362637 C11.9281967,7.21978022 11.697541,6.23076923 10.3136066,6.23076923 C8.89672131,6.23076923 8.56721311,7.15384615 8.56721311,8.37362637 L8.56721311,13.978022 L5.50278689,13.978022 L5.50278689,3.69230769 L8.3695082,3.69230769 L8.3695082,4.78021978 L8.40245902,4.78021978 C9.06147541,3.72527473 9.95114754,3.32967033 11.2032787,3.32967033 C12.06,3.32967033 13.1803279,3.65934066 13.8393443,4.21978022 C14.8278689,5.04395604 15.0255738,6.32967033 15.0255738,7.54945055 L15.0255738,13.978022 L11.9281967,13.978022 Z" id="Shape"></path>
                    <path d="M20.5283607,6.03296703 L20.5283607,13.978022 L17.4639344,13.978022 L17.4639344,6.03296703 L16.3106557,6.03296703 L16.3106557,3.69230769 L17.4639344,3.69230769 L17.4639344,3.16483516 C17.4639344,0.659340659 19.2432787,2.84217094e-14 21.385082,2.84217094e-14 L21.8134426,2.84217094e-14 L21.8134426,2.30769231 C20.6931148,2.30769231 20.5283607,2.53846154 20.5283607,3.69230769 L21.8134426,3.69230769 L21.8134426,6.03296703 L20.5283607,6.03296703 Z" id="Shape"></path>
                    <path d="M26.3936066,8.34065934 L26.3936066,13.978022 L23.3291803,13.978022 L23.3291803,3.69230769 L26.2288525,3.69230769 L26.2288525,4.78021978 L26.2618033,4.78021978 C26.7890164,3.72527473 27.6457377,3.32967033 28.8319672,3.32967033 L28.8319672,6.42857143 C27.4480328,6.46153846 26.3936066,6.72527473 26.3936066,8.34065934 Z" id="Shape"></path>
                    <path d="M37.7945902,13.978022 L37.7945902,12.8571429 L37.7616393,12.8571429 C37.2014754,13.9120879 35.8834426,14.3076923 34.7631148,14.3076923 C31.5998361,14.3076923 29.5898361,11.8681319 29.5898361,8.8021978 C29.5898361,5.8021978 31.6657377,3.32967033 34.7631148,3.32967033 C35.8834426,3.32967033 37.1355738,3.75824176 37.7616393,4.78021978 L37.7945902,4.78021978 L37.7945902,3.69230769 L40.8590164,3.69230769 L40.8590164,13.978022 L37.7945902,13.978022 Z M35.1914754,6.23076923 C33.6757377,6.23076923 32.6542623,7.41758242 32.6542623,8.86813187 C32.6542623,10.2857143 33.7745902,11.4725275 35.2244262,11.4725275 C36.7401639,11.4725275 37.7945902,10.3186813 37.7945902,8.83516484 C37.7945902,7.31868132 36.7072131,6.23076923 35.1914754,6.23076923 Z" id="Shape"></path>
                    <path d="M46.7901639,14.3406593 C44.6483607,14.3406593 42.8360656,13.1868132 42.6054098,10.9450549 L45.6698361,10.9450549 C45.7686885,11.5714286 46.23,11.9010989 46.8231148,11.9010989 C47.2844262,11.9010989 47.9104918,11.6373626 47.9104918,11.1098901 C47.9104918,10.3846154 47.0867213,10.1538462 46.5265574,9.92307692 C46.0981967,9.79120879 45.6368852,9.62637363 45.2085246,9.46153846 C43.9893443,9.03296703 42.7701639,8.20879121 42.7701639,6.79120879 C42.7701639,4.64835165 44.7801639,3.3956044 46.7572131,3.3956044 C48.8001639,3.3956044 50.5136066,4.45054945 50.7113115,6.62637363 L47.6798361,6.62637363 C47.6468852,6.06593407 47.2514754,5.83516484 46.7242623,5.83516484 C46.3288525,5.83516484 45.867541,6.06593407 45.867541,6.52747253 C45.867541,8.14285714 51.0408197,7.21978022 51.0408197,10.8791209 C50.974918,13.1538462 48.8660656,14.3406593 46.7901639,14.3406593 Z" id="Shape"></path>
                    <polygon id="Shape" points="56.28 6.03296703 56.28 13.978022 53.2155738 13.978022 53.2155738 6.03296703 51.6998361 6.03296703 51.6998361 3.69230769 53.2155738 3.69230769 53.2155738 0.263736264 56.28 0.263736264 56.28 3.69230769 57.7627869 3.69230769 57.7627869 6.03296703"></polygon>
                    <path d="M62.2770492,8.34065934 L62.2770492,13.978022 L59.212623,13.978022 L59.212623,3.69230769 L62.1122951,3.69230769 L62.1122951,4.78021978 L62.1452459,4.78021978 C62.672459,3.72527473 63.5291803,3.32967033 64.7154098,3.32967033 L64.7154098,6.42857143 C63.3644262,6.46153846 62.2770492,6.72527473 62.2770492,8.34065934 Z" id="Shape"></path>
                    <path d="M72.5577049,13.978022 L72.5577049,12.8901099 L72.5247541,12.8901099 C71.997541,14.010989 71.0090164,14.3076923 69.8557377,14.3076923 C68.7354098,14.3076923 67.5821311,13.9120879 66.8242623,13.021978 C66.0004918,12 65.9016393,11.1428571 65.9016393,9.85714286 L65.9016393,3.69230769 L68.9660656,3.69230769 L68.9660656,9.3956044 C68.9660656,10.5494505 69.2296721,11.4395604 70.6136066,11.4395604 C71.8986885,11.4395604 72.36,10.5164835 72.36,9.36263736 L72.36,3.72527473 L75.4244262,3.72527473 L75.4244262,14.010989 L72.5577049,14.010989 L72.5577049,13.978022 Z" id="Shape"></path>
                    <path d="M82.7065574,14.3076923 C79.6421311,14.3076923 77.2037705,11.8681319 77.2037705,8.8021978 C77.2037705,5.76923077 79.5762295,3.32967033 82.6406557,3.32967033 C85.2767213,3.32967033 87.5503279,5.04395604 88.077541,7.64835165 L84.9801639,7.64835165 C84.5518033,6.69230769 83.7280328,6.1978022 82.6736066,6.1978022 C81.1908197,6.1978022 80.3011475,7.41758242 80.3011475,8.8021978 C80.3011475,10.2527473 81.2567213,11.4065934 82.7395082,11.4065934 C83.7609836,11.4065934 84.4859016,10.9120879 84.9472131,10.021978 L88.077541,10.021978 C87.4844262,12.5934066 85.3096721,14.3076923 82.7065574,14.3076923 Z" id="Shape"></path>
                    <polygon id="Shape" points="93.382623 6.03296703 93.382623 13.978022 90.3181967 13.978022 90.3181967 6.03296703 88.802459 6.03296703 88.802459 3.69230769 90.3181967 3.69230769 90.3181967 0.263736264 93.382623 0.263736264 93.382623 3.69230769 94.8654098 3.69230769 94.8654098 6.03296703"></polygon>
                    <path d="M102.872459,13.978022 L102.872459,12.8901099 L102.839508,12.8901099 C102.312295,14.010989 101.32377,14.3076923 100.170492,14.3076923 C99.0501639,14.3076923 97.8968852,13.9120879 97.1390164,13.021978 C96.3152459,12 96.2163934,11.1428571 96.2163934,9.85714286 L96.2163934,3.69230769 L99.2808197,3.69230769 L99.2808197,9.3956044 C99.2808197,10.5494505 99.5444262,11.4395604 100.928361,11.4395604 C102.213443,11.4395604 102.674754,10.5164835 102.674754,9.36263736 L102.674754,3.72527473 L105.73918,3.72527473 L105.73918,14.010989 L102.872459,14.010989 L102.872459,13.978022 Z" id="Shape"></path>
                    <path d="M111.143115,8.34065934 L111.143115,13.978022 L108.078689,13.978022 L108.078689,3.69230769 L110.978361,3.69230769 L110.978361,4.78021978 L111.011311,4.78021978 C111.538525,3.72527473 112.395246,3.32967033 113.581475,3.32967033 L113.581475,6.42857143 C112.197541,6.46153846 111.143115,6.72527473 111.143115,8.34065934 Z" id="Shape"></path>
                    <path d="M125.01541,9.79120879 L117.304918,9.79120879 C117.502623,11.010989 118.524098,11.7362637 119.710328,11.7362637 C120.534098,11.7362637 121.094262,11.4065934 121.588525,10.7802198 L124.751803,10.7802198 C123.862131,12.8241758 122.049836,14.3406593 119.743279,14.3406593 C116.744754,14.3406593 114.306393,11.9010989 114.306393,8.9010989 C114.306393,5.93406593 116.678852,3.3956044 119.710328,3.3956044 C122.873607,3.3956044 125.147213,5.9010989 125.147213,9 C125.081311,9.23076923 125.081311,9.49450549 125.01541,9.79120879 Z M119.677377,5.93406593 C118.557049,5.93406593 117.568525,6.59340659 117.337869,7.68131868 L122.016885,7.68131868 C121.78623,6.59340659 120.797705,5.93406593 119.677377,5.93406593 Z" id="Shape"></path>
                </g>
                <g id="Group" transform="translate(74.798361, 11.208791)">
                    <path d="M4.3495082,6.1978022 L4.3495082,14.1428571 L1.28508197,14.1428571 L1.28508197,6.1978022 L0.131803279,6.1978022 L0.131803279,3.85714286 L1.28508197,3.85714286 L1.28508197,3.32967033 C1.28508197,0.824175824 3.06442623,0.164835165 5.20622951,0.164835165 L5.63459016,0.164835165 L5.63459016,2.47252747 C4.5142623,2.47252747 4.3495082,2.7032967 4.3495082,3.85714286 L5.63459016,3.85714286 L5.63459016,6.1978022 L4.3495082,6.1978022 Z" id="Shape"></path>
                    <path d="M10.1818033,8.47252747 L10.1818033,14.1098901 L7.11737705,14.1098901 L7.11737705,3.85714286 L10.0170492,3.85714286 L10.0170492,4.94505495 L10.05,4.94505495 C10.5772131,3.89010989 11.4339344,3.49450549 12.6201639,3.49450549 L12.6201639,6.59340659 C11.2691803,6.62637363 10.1818033,6.89010989 10.1818033,8.47252747 Z" id="Shape"></path>
                    <path d="M18.9137705,14.4395604 C15.7504918,14.4395604 13.3780328,12.1318681 13.3780328,8.96703297 C13.3780328,5.8021978 15.7504918,3.49450549 18.9137705,3.49450549 C22.0770492,3.49450549 24.4495082,5.8021978 24.4495082,8.96703297 C24.4495082,12.1318681 22.0770492,14.4395604 18.9137705,14.4395604 Z M18.9137705,6.3956044 C17.4968852,6.3956044 16.442459,7.61538462 16.442459,9 C16.442459,10.3846154 17.4639344,11.6043956 18.9137705,11.6043956 C20.3636066,11.6043956 21.385082,10.3846154 21.385082,9 C21.385082,7.61538462 20.3636066,6.3956044 18.9137705,6.3956044 Z" id="Shape"></path>
                    <path d="M32.6542623,14.1428571 L32.6542623,8.53846154 C32.6542623,7.38461538 32.4236066,6.3956044 31.0396721,6.3956044 C29.6227869,6.3956044 29.2932787,7.31868132 29.2932787,8.53846154 L29.2932787,14.1428571 L26.2288525,14.1428571 L26.2288525,3.85714286 L29.0955738,3.85714286 L29.0955738,4.94505495 L29.1285246,4.94505495 C29.787541,3.89010989 30.6772131,3.49450549 31.9293443,3.49450549 C32.7860656,3.49450549 33.9063934,3.82417582 34.5654098,4.38461538 C35.5539344,5.20879121 35.7516393,6.49450549 35.7516393,7.71428571 L35.7516393,14.1428571 L32.6542623,14.1428571 Z" id="Shape"></path>
                    <polygon id="Shape" points="41.5509836 6.1978022 41.5509836 14.1428571 38.4865574 14.1428571 38.4865574 6.1978022 36.9708197 6.1978022 36.9708197 3.85714286 38.4865574 3.85714286 38.4865574 0.428571429 41.5509836 0.428571429 41.5509836 3.85714286 43.0337705 3.85714286 43.0337705 6.1978022"></polygon>
                    <path d="M44.4836066,2.76923077 L44.4836066,0.428571429 L47.5480328,0.428571429 L47.5480328,2.76923077 L44.4836066,2.76923077 Z M44.4836066,14.1428571 L44.4836066,3.85714286 L47.5480328,3.85714286 L47.5480328,14.1428571 L44.4836066,14.1428571 Z" id="Shape"></path>
                    <path d="M60.0034426,9.92307692 L52.2929508,9.92307692 C52.4906557,11.1428571 53.5121311,11.8681319 54.6983607,11.8681319 C55.5221311,11.8681319 56.0822951,11.5384615 56.5765574,10.9120879 L59.7398361,10.9120879 C58.8501639,12.956044 57.0378689,14.4725275 54.7313115,14.4725275 C51.7327869,14.4725275 49.2944262,12.032967 49.2944262,9.03296703 C49.2944262,6.06593407 51.6668852,3.52747253 54.6983607,3.52747253 C57.8616393,3.52747253 60.1352459,6.03296703 60.1352459,9.13186813 C60.0693443,9.3956044 60.0693443,9.65934066 60.0034426,9.92307692 Z M54.6654098,6.0989011 C53.545082,6.0989011 52.5565574,6.75824176 52.3259016,7.84615385 L57.004918,7.84615385 C56.7742623,6.75824176 55.7857377,6.0989011 54.6654098,6.0989011 Z" id="Shape"></path>
                    <path d="M64.8142623,8.47252747 L64.8142623,14.1098901 L61.7498361,14.1098901 L61.7498361,3.85714286 L64.6495082,3.85714286 L64.6495082,4.94505495 L64.682459,4.94505495 C65.2096721,3.89010989 66.0663934,3.49450549 67.252623,3.49450549 L67.252623,6.59340659 C65.9016393,6.62637363 64.8142623,6.89010989 64.8142623,8.47252747 Z" id="Shape"></path>
                </g>
                <g id="Group">
                    <g transform="translate(0.000000, 25.714286)" id="Shape">
                        <path d="M44.1870492,11.7362637 C42.21,11.7362637 40.0681967,11.4395604 37.8604918,10.7142857 C41.1885246,13.0549451 45.0767213,14.0769231 49.4262295,13.7802198 C53.9734426,13.4505495 57.7298361,11.7692308 59.1467213,11.043956 C59.575082,9.23076923 59.8057377,7.35164835 59.8716393,5.47252747 C58.1581967,6.92307692 55.7198361,8.63736264 52.7542623,9.92307692 C50.4147541,10.9120879 47.4821311,11.7362637 44.1870492,11.7362637 Z"></path>
                        <path d="M47.9763934,17.1098901 C42.4077049,17.1098901 35.3232787,15.0989011 29.7216393,6.92307692 L10.05,26.5714286 C15.5527869,31.4835165 22.5383607,34.1868132 29.9852459,34.1868132 C30.5783607,34.1868132 31.2044262,34.1538462 31.797541,34.1208791 C43.6268852,33.4285714 53.7098361,25.9450549 57.8945902,15.1648352 C55.8186885,15.956044 52.9519672,16.8131868 49.6898361,17.043956 C49.1296721,17.1098901 48.5695082,17.1098901 47.9763934,17.1098901 Z"></path>
                        <path d="M2.96557377,17.1098901 C4.1847541,19.7142857 5.79934426,22.1208791 7.7104918,24.2637363 L26.9537705,5.04395604 C11.4009836,0.593406593 4.38245902,13.9450549 2.96557377,17.1098901 Z"></path>
                        <path d="M6.65606557,6.49450549 C9.7204918,3.69230769 14.3006557,0.956043956 20.4954098,0.824175824 C16.5742623,-0.296703297 12.5872131,-3.35842465e-15 8.5342623,1.74725275 C4.3495082,3.56043956 1.35098361,6.3956044 0.263606557,7.51648352 C0.461311475,9.3956044 0.823770492,11.2417582 1.38393443,13.021978 C2.53721311,11.1098901 4.25065574,8.67032967 6.65606557,6.49450549 Z"></path>
                    </g>
                    <path d="M53.347377,27.8241758 C50.2829508,30.6263736 45.7027869,33.3626374 39.5409836,33.4945055 C43.4621311,34.6153846 47.4491803,34.3186813 51.4691803,32.5714286 C55.6539344,30.7582418 58.652459,27.956044 59.7398361,26.8021978 C59.5421311,24.9230769 59.1796721,23.0769231 58.6195082,21.2967033 C57.4662295,23.2087912 55.7527869,25.6483516 53.347377,27.8241758 Z" id="Shape"></path>
                    <path d="M57.0378689,17.2417582 C55.8186885,14.6373626 54.2040984,12.2307692 52.2929508,10.0879121 L33.0496721,29.3076923 C48.602459,33.7252747 55.6209836,20.3736264 57.0378689,17.2417582 Z" id="Shape"></path>
                    <path d="M30.2818033,27.3956044 L49.9534426,7.74725275 C44.4506557,2.83516484 37.465082,0.131868132 30.0511475,0.131868132 C29.4580328,0.131868132 28.8319672,0.164835165 28.2388525,0.197802198 C16.4095082,0.89010989 6.32655738,8.37362637 2.14180328,19.1538462 C4.21770492,18.3626374 7.08442623,17.5054945 10.3465574,17.2747253 C16.1129508,16.8461538 24.12,18.3626374 30.2818033,27.3956044 Z" id="Shape"></path>
                    <path d="M22.11,23.6043956 C13.3780328,17.5054945 3.39393443,21.989011 0.856721311,23.3076923 C0.428360656,25.1208791 0.197704918,27 0.131803279,28.8791209 C1.8452459,27.4285714 4.28360656,25.7142857 7.24918033,24.4285714 C11.0385246,22.8131868 16.2447541,21.7252747 22.11,23.6043956 Z" id="Shape"></path>
                </g>
            </g>
        </g>
    </g>
</svg>