<svg xmlns="http://www.w3.org/2000/svg" viewBox="0 0 124.54 152.68"><path style="fill:#f1f1f1;" d="M96.61,144.56h0v.06a16,16,0,0,1-21.83,5.85c-10.44-6-6.26-20.43-21.68-27.24-10-4.39-17.66-.47-25.73,1C14.37,126.67,1.69,118.47.19,105-1.11,93.35,6.35,82,18,79.7c7-1.42,14.63-.28,23.19-4.64,9.79-5,14.08-11.94,16.15-19.65,3.5-13.08.6-28.35,7.15-40C74.29-2,101.92-5.81,116.12,9.6c16.17,17.54,8,47.6-14.48,54.09C92,66.48,81.46,64.86,71.78,66.64c-8.1,1.48-15.6,5.33-21.5,16.1-6.63,12.11-5.77,25.73,5.84,34.51,13.64,10.32,24.2-.7,34.71,5.37a16,16,0,0,1,5.85,21.83Z" transform="translate(-0.04 0.07)"/></svg>
