<svg xmlns="http://www.w3.org/2000/svg" viewBox="0 0 512 512"><defs><style>.a,.b{fill:none;stroke:#449fdb;}.a{opacity:0.3;isolation:isolate;}.c{fill:#fff;}</style></defs><title>share</title><line class="a" x1="16" x2="16" y2="512"/><line class="b" x1="32" x2="32" y2="512"/><line class="a" x1="48" x2="48" y2="512"/><line class="b" x1="64" x2="64" y2="512"/><line class="a" x1="80" x2="80" y2="512"/><line class="b" x1="96" x2="96" y2="512"/><line class="a" x1="112" x2="112" y2="512"/><line class="b" x1="128" x2="128" y2="512"/><line class="a" x1="144" x2="144" y2="512"/><line class="b" x1="160" x2="160" y2="512"/><line class="a" x1="176" x2="176" y2="512"/><line class="b" x1="192" x2="192" y2="512"/><line class="a" x1="208" x2="208" y2="512"/><line class="b" x1="224" x2="224" y2="512"/><line class="a" x1="240" x2="240" y2="512"/><line class="b" x1="256" x2="256" y2="512"/><line class="a" x1="272" x2="272" y2="512"/><line class="b" x1="288" x2="288" y2="512"/><line class="a" x1="304" x2="304" y2="512"/><line class="b" x1="320" x2="320" y2="512"/><line class="a" x1="336" x2="336" y2="512"/><line class="b" x1="352" x2="352" y2="512"/><line class="a" x1="368" x2="368" y2="512"/><line class="b" x1="384" x2="384" y2="512"/><line class="a" x1="400" x2="400" y2="512"/><line class="b" x1="416" x2="416" y2="512"/><line class="a" x1="432" x2="432" y2="512"/><line class="b" x1="448" x2="448" y2="512"/><line class="a" x1="464" x2="464" y2="512"/><line class="b" x1="480" x2="480" y2="512"/><line class="a" x1="496" x2="496" y2="512"/><line class="a" y1="16" x2="512" y2="16"/><line class="b" y1="32" x2="512" y2="32"/><line class="a" y1="48" x2="512" y2="48"/><line class="b" y1="64" x2="512" y2="64"/><line class="a" y1="80" x2="512" y2="80"/><line class="b" y1="96" x2="512" y2="96"/><line class="a" y1="112" x2="512" y2="112"/><line class="b" y1="128" x2="512" y2="128"/><line class="a" y1="144" x2="512" y2="144"/><line class="b" y1="160" x2="512" y2="160"/><line class="a" y1="176" x2="512" y2="176"/><line class="b" y1="192" x2="512" y2="192"/><line class="a" y1="208" x2="512" y2="208"/><line class="b" y1="224" x2="512" y2="224"/><line class="a" y1="240" x2="512" y2="240"/><line class="b" y1="256" x2="512" y2="256"/><line class="a" y1="272" x2="512" y2="272"/><line class="b" y1="288" x2="512" y2="288"/><line class="a" y1="304" x2="512" y2="304"/><line class="b" y1="320" x2="512" y2="320"/><line class="a" y1="336" x2="512" y2="336"/><line class="b" y1="352" x2="512" y2="352"/><line class="a" y1="368" x2="512" y2="368"/><line class="b" y1="384" x2="512" y2="384"/><line class="a" y1="400" x2="512" y2="400"/><line class="b" y1="416" x2="512" y2="416"/><line class="a" y1="432" x2="512" y2="432"/><line class="b" y1="448" x2="512" y2="448"/><line class="a" y1="464" x2="512" y2="464"/><line class="b" y1="480" x2="512" y2="480"/><line class="a" y1="496" x2="512" y2="496"/><path class="c" d="M432,352a79.74,79.74,0,0,0-57.51,24.42L159,268.66a80.05,80.05,0,0,0,0-25.33l215.5-107.75A80,80,0,1,0,352,80a80.56,80.56,0,0,0,1,12.66L137.51,200.42a80,80,0,1,0,0,111.17L353,419.34A80,80,0,1,0,432,352Z"/></svg>