<svg width="63" height="61" viewBox="0 0 63 61" fill="none" xmlns="http://www.w3.org/2000/svg"><path stroke="#000" stroke-linecap="round" stroke-linejoin="round" d="M.5 22.5h46v38H.5z"/><path d="M22.51 11.456c0 6.075-4.925 11-11 11-6.104 0-10.99-4.453-10.99-10.5 0-6.075 4.926-11 11-11 6.105 0 10.99 4.453 10.99 10.5zm23.99.044c0 6.075-4.925 11-11 11-6.104 0-10.99-4.453-10.99-10.5 0-6.075 4.926-11 11-11C41.616 1 46.5 5.453 46.5 11.5z" stroke="#000"/><path d="M62 54.695L46.764 41.5 62 28.305v26.39zM19.5 34.222L30.116 41.5 19.5 48.778V34.222z" stroke="#000" stroke-linecap="round" stroke-linejoin="round"/></svg>