<svg width="54" height="62" viewBox="0 0 54 62" fill="none" xmlns="http://www.w3.org/2000/svg"><path d="M8.15 27.5C8.15 16.73 16.88 8 27.65 8s19.5 8.73 19.5 19.5c0 8.846-3.404 13.676-6.823 16.507-1.72 1.424-3.458 2.353-4.813 3.034l-.48.24c-.474.235-.897.445-1.226.634-.22.126-.423.257-.584.394-.152.13-.324.314-.39.562-.509 1.908-.773 3.684-.97 5.262l-.136 1.133c-.131 1.114-.246 2.093-.423 2.945-.234 1.128-.559 1.931-1.086 2.459-.51.51-1.28.83-2.569.83-1.264 0-2.022-.293-2.535-.772-.529-.493-.872-1.253-1.154-2.352-.195-.761-.35-1.632-.526-2.63-.08-.451-.165-.928-.26-1.432-.302-1.605-.703-3.443-1.384-5.473a.772.772 0 0 0-.192-.298 1.419 1.419 0 0 0-.22-.174 4.706 4.706 0 0 0-.536-.291 25.22 25.22 0 0 0-.632-.291l-.082-.037a46.998 46.998 0 0 1-.883-.409c-1.277-.61-2.93-1.507-4.569-2.931-3.258-2.831-6.527-7.8-6.527-16.91zM22 49.5h11m-10 5h9M7.603 37.611l-3 2m.002-12.988L1 26.633m6.603-11.022l-3-2m11.499-6l-2-3.007m33 33.02l3 2M50.1 26.636l3.605.009m-6.603-11.021l3-2m-11.5-6l2-3.008M27.17 1l-.067 3.611" stroke="#000"/><path d="M24.482 24.5l3.018-4.15 3.018 4.15h-6.036zM24 25v24m7-24v24m-3.5-24v24" stroke="#000"/></svg>