<svg width="99" height="92" viewBox="0 0 99 92" fill="none" xmlns="http://www.w3.org/2000/svg">
<path d="M86.5633 0L42.3608 21.7241H7.98101V24.2069H0V52.7586H7.98101V54.6207H34.3797H38.0633H42.3608L86.5633 75.1034M86.5633 0H97V75.1034H86.5633M86.5633 0V75.1034" transform="translate(1 1)" stroke="black" stroke-width="2"/>
<path d="M0 9.31034V0H22.7152V9.31034M0 9.31034L7.36709 35.3793H32.538L22.7152 9.31034M0 9.31034H22.7152" transform="translate(12.0508 55.6201)" stroke="black" stroke-width="2"/>
<path d="M0 0V33M0 0H34M0 0L34 33M0 33H34M0 33L34 0M34 33V0" transform="translate(9 23)" stroke="black" stroke-width="2"/>
</svg>
