<svg width="102" height="97" viewBox="0 0 102 97" fill="none" xmlns="http://www.w3.org/2000/svg">
<rect x="1" y="1" width="74.0293" height="60.4835" transform="translate(0 34.5166)" stroke="black" stroke-width="2" stroke-linecap="round" stroke-linejoin="round"/>
<path d="M36.1885 17.6236C36.1885 27.2379 28.3165 35.0482 18.5855 35.0482C8.79635 35.0482 0.99989 27.9829 0.99989 18.4246C0.99989 8.81033 8.87189 1 18.6028 1C28.392 1 36.1885 8.06524 36.1885 17.6236Z" transform="translate(0.0341797)" stroke="black" stroke-width="2"/>
<path d="M36.1885 17.6236C36.1885 27.2379 28.3165 35.0482 18.5855 35.0482C8.79635 35.0482 0.99989 27.9829 0.99989 18.4246C0.99989 8.81033 8.87189 1 18.6028 1C28.392 1 36.1885 8.06524 36.1885 17.6236Z" transform="translate(38.8406 0.0712891)" stroke="black" stroke-width="2"/>
<path d="M5.71685 25.6912L26.4353 1.53599L47.1538 25.6911L5.71685 25.6912Z" transform="translate(74.4116 92.1934) rotate(-90)" stroke="black" stroke-width="2" stroke-linecap="round" stroke-linejoin="round"/>
<path d="M3.92692 18.4117L15.2203 1.78011L26.5138 18.4117L3.92692 18.4117Z" transform="translate(50.1467 50.5381) rotate(90)" stroke="black" stroke-width="2" stroke-linecap="round" stroke-linejoin="round"/>
</svg>
