<svg xmlns="http://www.w3.org/2000/svg" viewBox="0 0 214.17 153.03"><defs><style>.a{fill:url(#a)}.b{fill:#1f1b20}</style><linearGradient id="a" x1="-259.78" y1="-188.9" x2="-197.56" y2="-91.79" gradientTransform="matrix(1 0 0 -1 307.02 -67.18)" gradientUnits="userSpaceOnUse"><stop offset="0" stop-color="#4a58a5"/><stop offset=".44" stop-color="#6958a4"/><stop offset="1" stop-color="#f24a41"/></linearGradient></defs><title>logo</title><path class="a" d="M96.57 144.63v.06a16 16 0 0 1-21.83 5.85c-10.44-6-6.26-20.43-21.68-27.24-10-4.39-17.66-.47-25.73 1-13 2.44-25.68-5.76-27.18-19.24-1.3-11.64 6.16-23 17.81-25.29 7-1.42 14.63-.28 23.19-4.64 9.79-5 14.08-11.94 16.15-19.65 3.5-13.08.6-28.35 7.15-40 9.8-17.42 37.43-21.22 51.63-5.81 16.17 17.54 8 47.6-14.48 54.09-9.65 2.79-20.18 1.17-29.86 3-8.1 1.48-15.6 5.33-21.5 16.1-6.63 12.11-5.77 25.73 5.84 34.51 13.64 10.32 24.2-.7 34.71 5.37a16 16 0 0 1 5.85 21.83z"/><path class="b" d="M129.15 76.39h-5.56a.69.69 0 0 0-.35.1 1.09 1.09 0 0 0-.53.93v13.76a1 1 0 0 0 .69 1 9.37 9.37 0 0 0 2 .1h3.74a5.85 5.85 0 0 0 5.76-3.61 10.62 10.62 0 0 0 1-4.59 8.62 8.62 0 0 0-1.6-5.37 6.1 6.1 0 0 0-5.1-2.33zm-.42 14.06h-3.86V78.24h3.84a4.33 4.33 0 0 1 3.77 1.64 7.64 7.64 0 0 1 1.18 4.59 9.11 9.11 0 0 1-.16 1.66 6.28 6.28 0 0 1-.93 2.46 4 4 0 0 1-2 1.64 5.92 5.92 0 0 1-1.84.22zm22.34 16.16a8.13 8.13 0 0 0-3.88-.86 6.87 6.87 0 0 0-5.32 2.26 9 9 0 0 0-2.17 6.34 8.78 8.78 0 0 0 2.22 6.32 7 7 0 0 0 4.88 1.82 7.18 7.18 0 0 0 3.59-.8 7.76 7.76 0 0 0 1.87-1.57v1.07a1.09 1.09 0 0 0 1.09 1.09c.6 0 .82-.49.82-1.09v-6.48c0-1-.61-1.09-1.37-1.14s-1.75 0-2.18 0h-2.71a.94.94 0 0 0-.94.94.94.94 0 0 0 .94.94h4.32a4.69 4.69 0 0 1-5 5.26 4.61 4.61 0 0 1-4.06-1.8 7.93 7.93 0 0 1-1.24-4.61 7.17 7.17 0 0 1 1.51-4.94 4.89 4.89 0 0 1 3.72-1.64 5.53 5.53 0 0 1 3.08.78 3.43 3.43 0 0 1 1.18 1.32c.63 1.21.74 1.22 1.4 1.23h.28c.39 0 1 0 .58-1.24a5.34 5.34 0 0 0-2.61-3.2zm46.74 31.2a6.53 6.53 0 0 0-4.7-1.6 6.76 6.76 0 0 0-5.54 2.46 8.7 8.7 0 0 0-1.86 5.76c0 3.08.82 5.37 2.48 6.85a6.75 6.75 0 0 0 4.66 1.69 6.6 6.6 0 0 0 5.13-2.09 6.33 6.33 0 0 0 1.64-3c.26-1.2.26-1.19-.65-1.22h-.29c-.9.06-.83-.09-1.23 1.1a5.61 5.61 0 0 1-.7 1.45 4.12 4.12 0 0 1-3.64 1.82 4.52 4.52 0 0 1-3.88-1.75 7.35 7.35 0 0 1-1.27-4.52 7.6 7.6 0 0 1 1.44-5.06 4.87 4.87 0 0 1 3.79-1.64 4.61 4.61 0 0 1 3 .89 4.3 4.3 0 0 1 1 1.35c.54 1.1.48 1.15 1.25 1.09h.41c.66.07 1-.13.53-1.31a6 6 0 0 0-1.57-2.27zm-82.43-61.42a1.09 1.09 0 0 1 1.08 1.09V91.2a1.09 1.09 0 0 1-1.08 1.09 1.09 1.09 0 0 1-1.08-1.09V77.48a1.09 1.09 0 0 1 1.08-1.09zm27.72 2.16v4.71h7.63a1.09 1.09 0 0 1 1.09 1.09 1.09 1.09 0 0 1-1.09 1.09h-7.63v4.75h8.51a1.09 1.09 0 0 1 1.09 1.09 1.09 1.09 0 0 1-1.09 1.09h-9.65a1.09 1.09 0 0 1-1.09-1.09V77.46a1.09 1.09 0 0 1 1.09-1.08h9.42a1.09 1.09 0 0 1 1.09 1.09 1.09 1.09 0 0 1-1.09 1.09zm19.86-2.19a1.09 1.09 0 0 1 1 .73l4.87 13.87a1.09 1.09 0 0 1-.67 1.38 1.09 1.09 0 0 1-1.38-.67l-1.37-3.9h-6.31l-1.38 3.93a1.09 1.09 0 0 1-1.38.67 1.09 1.09 0 0 1-.67-1.38l4.87-13.87a1.09 1.09 0 0 1 1-.73h1.42zm1.71 9.24l-2.4-6.82-2.4 6.82zm-43.86 20.46h-5.58a.69.69 0 0 0-.35.1 1.09 1.09 0 0 0-.53.93v13.83a1 1 0 0 0 .69 1 9.37 9.37 0 0 0 2 .1h3.74a5.85 5.85 0 0 0 5.76-3.61 10.63 10.63 0 0 0 1-4.59 8.62 8.62 0 0 0-1.6-5.37 6.1 6.1 0 0 0-5.1-2.33zm-.42 14h-3.86v-12.2h3.84a4.33 4.33 0 0 1 3.77 1.64 7.64 7.64 0 0 1 1.18 4.59 9.08 9.08 0 0 1-.16 1.66 6.28 6.28 0 0 1-.93 2.46 3.94 3.94 0 0 1-2 1.64 5.92 5.92 0 0 1-1.84.2zm13.19-13.9a1.09 1.09 0 0 1 1.09 1.09v13.72a1.09 1.09 0 0 1-1.09 1.09 1.09 1.09 0 0 1-1.09-1.09v-13.72a1.09 1.09 0 0 1 1.09-1.09zm27.64-.1a1.09 1.09 0 0 1 1.09 1.09v13.72a1.09 1.09 0 0 1-1.09 1.09 1.09 1.09 0 0 1-1.09-1.09v-13.68a1.09 1.09 0 0 1 1.09-1.13zm25.02 0a1.09 1.09 0 0 1 1 .73l4.87 13.87a1.09 1.09 0 0 1-.67 1.38 1.09 1.09 0 0 1-1.38-.67l-1.37-3.9h-6.31l-1.42 3.92a1.09 1.09 0 0 1-1.38.67 1.09 1.09 0 0 1-.67-1.38l4.87-13.87a1.09 1.09 0 0 1 1-.73h1.4zm1.71 9.24l-2.4-6.82-2.4 6.82zm-66.66 21.24a1.09 1.09 0 0 1 1 .73l4.87 13.87a1.09 1.09 0 0 1-.67 1.38 1.09 1.09 0 0 1-1.38-.67l-1.37-3.9h-6.31l-1.38 3.93a1.09 1.09 0 0 1-1.38.67 1.09 1.09 0 0 1-.67-1.38l4.87-13.87a1.09 1.09 0 0 1 1-.73h1.4zm1.71 9.24l-2.4-6.82-2.4 6.82zm30.59-7.01v4.71h7.63a1.09 1.09 0 0 1 1.09 1.09 1.09 1.09 0 0 1-1.09 1.09h-7.63v4.75h8.51a1.09 1.09 0 0 1 1.09 1.09 1.09 1.09 0 0 1-1.09 1.09h-9.6a1.09 1.09 0 0 1-1.09-1.09v-13.82a1.09 1.09 0 0 1 1.09-1.08h9.46a1.09 1.09 0 0 1 1.06 1.08 1.09 1.09 0 0 1-1.09 1.09zm19.3-30.45v12.74a1.09 1.09 0 0 1-1.09 1.09 1.09 1.09 0 0 1-1.09-1.09v-12.74h-4.29a1.09 1.09 0 0 1-1.09-1.09 1.09 1.09 0 0 1 1.09-1.09h10.75a1.09 1.09 0 0 1 1.09 1.09 1.09 1.09 0 0 1-1.09 1.09zm33.43 12.74a1.09 1.09 0 0 1-1.09 1.09h-8a1.4 1.4 0 0 1-1.13-1.33v-13.76a1.09 1.09 0 0 1 1.09-1.09 1.09 1.09 0 0 1 1.08 1.09v12.9h7a1.09 1.09 0 0 1 1.05 1.1zm-63.96 16a8.12 8.12 0 0 0-3.88-.86 6.87 6.87 0 0 0-5.32 2.26 9 9 0 0 0-2.18 6.38 8.78 8.78 0 0 0 2.22 6.32 7 7 0 0 0 4.88 1.82 7.18 7.18 0 0 0 3.59-.8 7.77 7.77 0 0 0 1.87-1.57v1.07a1.09 1.09 0 0 0 1.09 1.09c.6 0 .82-.49.82-1.09v-6.48c0-1-.61-1.09-1.37-1.14s-1.75 0-2.18 0h-2.71a.94.94 0 0 0-.94.94.94.94 0 0 0 .94.94h4.32a4.69 4.69 0 0 1-5 5.26 4.61 4.61 0 0 1-4.06-1.8 7.93 7.93 0 0 1-1.24-4.61 7.17 7.17 0 0 1 1.51-4.94 4.89 4.89 0 0 1 3.72-1.64 5.53 5.53 0 0 1 3.08.78 3.43 3.43 0 0 1 1.18 1.32c.63 1.21.74 1.22 1.4 1.23h.28c.39 0 1 0 .58-1.24a5.34 5.34 0 0 0-2.6-3.24zm37.6-.49a1.09 1.09 0 0 1 1 1.09v13.72c0 1.32-2.33 1.42-2.83.65l-7.77-12.08v11.43a1.09 1.09 0 0 1-1.09 1.09 1.09 1.09 0 0 1-1.09-1.09v-13.72c0-1.42 2.39-1.39 2.89-.61l7.7 12v-11.39a1.09 1.09 0 0 1 1.09-1.09zm29.13 9.24v5.84a1.09 1.09 0 0 1-1.1 1.08 1.09 1.09 0 0 1-1.09-1.09v-5.65l-5.05-7.74a1.09 1.09 0 0 1 .32-1.5 1.09 1.09 0 0 1 1.5.32l4.26 6.52 4.26-6.52a1.09 1.09 0 0 1 1.5-.32 1.09 1.09 0 0 1 .32 1.5z"/></svg>