<svg width="34" height="34" viewBox="0 0 34 34" fill="none" xmlns="http://www.w3.org/2000/svg">
<path d="M32.7165 1.28406C31.8606 0.427892 30.8349 0 29.6399 0H4.36089C3.16552 0 2.14009 0.428047 1.28391 1.28406C0.427894 2.13985 0 3.16542 0 4.36056V29.6392C0 30.8342 0.427816 31.86 1.28391 32.7159C2.14009 33.5718 3.16575 34 4.36089 34H29.6396C30.8343 34 31.8604 33.5718 32.7163 32.7159C33.5725 31.86 34 30.8342 34 29.6392V4.36056C33.9999 3.16519 33.5725 2.14016 32.7165 1.28406ZM12.2081 12.2518C13.5435 10.9607 15.1484 10.3149 17.0226 10.3149C18.9112 10.3149 20.5233 10.9607 21.859 12.2518C23.1947 13.5431 23.8622 15.1038 23.8622 16.9336C23.8622 18.7631 23.1947 20.3239 21.859 21.6148C20.5233 22.9064 18.9118 23.5521 17.0226 23.5521C15.1485 23.5521 13.5437 22.9058 12.2081 21.6148C10.8724 20.3237 10.2046 18.7631 10.2046 16.9336C10.2046 15.1038 10.8724 13.5431 12.2081 12.2518ZM30.149 28.732C30.149 29.1154 30.0158 29.4362 29.7504 29.6946C29.4843 29.9528 29.1675 30.082 28.7982 30.082H5.13573C4.75211 30.082 4.4309 29.9528 4.17288 29.6946C3.91447 29.4368 3.78538 29.1154 3.78538 28.732V14.3878H6.90639C6.61138 15.3176 6.46384 16.2843 6.46384 17.2876C6.46384 20.1215 7.49671 22.5376 9.56268 24.5375C11.6289 26.5367 14.1154 27.5368 17.0225 27.5368C18.9409 27.5368 20.7116 27.0791 22.3355 26.1643C23.9587 25.2489 25.2418 24.0059 26.1869 22.4341C27.1314 20.8624 27.6037 19.1468 27.6037 17.2876C27.6037 16.2844 27.4556 15.3179 27.1606 14.3878H30.1492L30.149 28.732ZM30.149 8.96456C30.149 9.39253 30.0015 9.75414 29.7059 10.0492C29.4109 10.3445 29.0495 10.492 28.6213 10.492H24.7699C24.3421 10.492 23.9802 10.3445 23.6852 10.0492C23.3901 9.75414 23.2426 9.39253 23.2426 8.96456V5.31256C23.2426 4.89932 23.3901 4.54152 23.6852 4.23891C23.9803 3.93647 24.3422 3.78505 24.7699 3.78505H28.6213C29.0495 3.78505 29.4109 3.93639 29.7059 4.23891C30.0014 4.54152 30.149 4.89932 30.149 5.31256V8.96456Z" fill="#383838"/>
</svg>
