<svg width="34" height="34" viewBox="0 0 34 34" fill="none" xmlns="http://www.w3.org/2000/svg">
<path d="M3.72086 0.000265566H3.23553H0V2.96852H3.47819C4.09833 2.96852 4.63759 2.80662 4.63759 1.37646C4.63759 -0.0537022 3.72086 0.000265566 3.72086 0.000265566Z" transform="translate(9.43652 12.4121)" fill="#383838"/>
<path d="M3.72086 8.23491e-07H0V3.77778H3.26249C3.31641 3.77778 3.3973 3.77778 3.50515 3.77778C4.04441 3.77778 5.06899 3.56191 5.06899 1.94286C5.09595 0.0269841 3.72086 8.23491e-07 3.72086 8.23491e-07Z" transform="translate(9.43652 17.5391)" fill="#383838"/>
<path d="M25.4528 2.01047e-10H8.52022C3.82871 2.01047e-10 0 3.83175 0 8.52698V25.5C0 30.1683 3.82871 34 8.52022 34H25.4798C30.1713 34 34 30.1683 34 25.473V8.52698C33.973 3.83175 30.1443 2.01047e-10 25.4528 2.01047e-10ZM19.9524 10.7937H25.6146V12.1429H19.9524V10.7937ZM17.3101 19.6714C17.3101 23.881 13.1578 24.0159 13.1578 24.0159H9.3291H9.22125H6.47106V9.98413H9.19429H9.30214H13.1308C15.207 9.98413 16.8517 11.1714 16.8517 13.654C16.8517 16.1365 14.8565 16.2714 14.8565 16.2714C17.4988 16.2444 17.3101 19.6714 17.3101 19.6714ZM27.475 19.4286H20.6535C20.6535 22.127 22.9722 21.9111 22.9722 21.9111C25.1562 21.9111 25.0753 20.5079 25.0753 20.5079H27.3941C27.3941 24.2857 22.8914 24.1238 22.8914 24.1238C17.4988 24.1238 17.8493 18.8079 17.8493 18.8079C17.8493 18.8079 17.8493 13.4651 22.8914 13.4651C28.203 13.4381 27.475 19.4286 27.475 19.4286Z" fill="#383838"/>
<path d="M2.31879 4.12073e-07C0.29659 4.12073e-07 0 2.13344 0 2.13344H4.31404C4.31404 2.13344 4.341 4.12073e-07 2.31879 4.12073e-07Z" transform="translate(20.6265 15.4062)" fill="#383838"/>
</svg>
