<svg width="46" height="46" viewBox="0 0 46 46" fill="none" xmlns="http://www.w3.org/2000/svg">
<path d="M22.6902 0H3.37727C1.51575 0 0 1.5157 0 3.37717V42.6221C0 44.4843 1.51575 46 3.37727 46H22.6894C24.5517 46 26.0674 44.4843 26.0674 42.6228V3.37717C26.0674 1.5157 24.5517 0 22.6902 0ZM1.53338 6.13333H24.5341V35.2667H1.53338V6.13333ZM3.37727 1.53333H22.6894C23.7068 1.53333 24.5341 2.36057 24.5341 3.37717V4.6H1.53338V3.37717C1.53338 2.36057 2.36064 1.53333 3.37727 1.53333ZM22.6902 44.4667H3.37727C2.36064 44.4667 1.53338 43.6394 1.53338 42.6228V36.8H24.5341V42.6228C24.5341 43.6394 23.7068 44.4667 22.6902 44.4667Z" transform="translate(9.96631)" fill="#333333"/>
<path d="M3.06676 0C1.37544 0 0 1.3754 0 3.06667C0 4.75793 1.37544 6.13333 3.06676 6.13333C4.75807 6.13333 6.13351 4.75793 6.13351 3.06667C6.13351 1.3754 4.75807 0 3.06676 0ZM3.06676 4.6C2.2211 4.6 1.53338 3.9123 1.53338 3.06667C1.53338 2.22103 2.2211 1.53333 3.06676 1.53333C3.91242 1.53333 4.60013 2.22103 4.60013 3.06667C4.60013 3.9123 3.91242 4.6 3.06676 4.6Z" transform="translate(19.9331 37.5664)" fill="#333333"/>
<path d="M0.766689 1.53333H3.83345C4.25743 1.53333 4.60014 1.19063 4.60014 0.766667C4.60014 0.3427 4.25743 0 3.83345 0H0.766689C0.34271 0 0 0.3427 0 0.766667C0 1.19063 0.34271 1.53333 0.766689 1.53333Z" transform="translate(19.1665 2.2998)" fill="#333333"/>
<path d="M0.766689 1.53333H1.53338C1.95736 1.53333 2.30007 1.19063 2.30007 0.766667C2.30007 0.3427 1.95736 0 1.53338 0H0.766689C0.34271 0 0 0.3427 0 0.766667C0 1.19063 0.34271 1.53333 0.766689 1.53333Z" transform="translate(24.5332 2.2998)" fill="#333333"/>
<path d="M1.30893 0.224825C1.00915 -0.0749419 0.524609 -0.0749419 0.224833 0.224825C-0.0749424 0.524591 -0.0749424 1.00912 0.224833 1.30889C3.08918 4.17316 3.08918 8.83372 0.224833 11.6988C-0.0749424 11.9985 -0.0749424 12.4831 0.224833 12.7828C0.374337 12.9323 0.570608 13.0075 0.76688 13.0075C0.963152 13.0075 1.15943 12.9323 1.30893 12.7828C4.7713 9.32133 4.7713 3.68709 1.30893 0.224825Z" transform="translate(42.0942 3.27832)" fill="#333333"/>
<path d="M1.30893 0.224825C1.00916 -0.0749418 0.524607 -0.0749418 0.224831 0.224825C-0.0749442 0.524591 -0.0749442 1.00912 0.224831 1.30889C1.17323 2.25726 1.69534 3.52072 1.69534 4.86546C1.69534 6.21019 1.17323 7.47289 0.224831 8.42126C-0.0749442 8.72102 -0.0749442 9.20556 0.224831 9.50532C0.374336 9.65483 0.570609 9.72996 0.766881 9.72996C0.963153 9.72996 1.15943 9.65483 1.30893 9.50532C2.54713 8.26793 3.22872 6.61959 3.22872 4.86546C3.22872 3.11132 2.5479 1.46222 1.30893 0.224825Z" transform="translate(38.8652 5.02344)" fill="#333333"/>
<path d="M3.68088 1.30889C3.98065 1.00912 3.98065 0.524591 3.68088 0.224825C3.3811 -0.0749419 2.89655 -0.0749419 2.59678 0.224825C-0.865592 3.68709 -0.865592 9.32056 2.59678 12.7828C2.74628 12.9323 2.94255 13.0075 3.13883 13.0075C3.3351 13.0075 3.53137 12.9323 3.68088 12.7828C3.98065 12.4831 3.98065 11.9985 3.68088 11.6988C0.815757 8.83449 0.815757 4.17392 3.68088 1.30889Z" transform="translate(0 3.27832)" fill="#333333"/>
<path d="M3.00389 0.224825C2.70411 -0.0749419 2.21957 -0.0749419 1.91979 0.224825C0.681587 1.46222 -1.60858e-07 3.11056 -1.60858e-07 4.86469C-1.60858e-07 6.61882 0.681587 8.26716 1.91979 9.50532C2.06929 9.65482 2.26557 9.72996 2.46184 9.72996C2.65811 9.72996 2.85438 9.65482 3.00389 9.50532C3.30366 9.20556 3.30366 8.72102 3.00389 8.42126C2.05549 7.47289 1.53338 6.20942 1.53338 4.86469C1.53338 3.51996 2.05473 2.25726 3.00389 1.30889C3.3029 1.00989 3.3029 0.524591 3.00389 0.224825Z" transform="translate(3.90576 4.81055)" fill="#333333"/>
</svg>
