<svg width="34" height="34" viewBox="0 0 34 34" fill="none" xmlns="http://www.w3.org/2000/svg"><path d="M32.717 1.284C31.86.428 30.835 0 29.64 0H4.36C3.167 0 2.14.428 1.285 1.284.428 2.14 0 3.165 0 4.361v25.278c0 1.195.428 2.221 1.284 3.077C2.14 33.572 3.166 34 4.36 34h25.28c1.194 0 2.22-.428 3.076-1.284.856-.856 1.284-1.882 1.284-3.077V4.361c0-1.196-.428-2.22-1.283-3.077zM12.208 12.252c1.335-1.291 2.94-1.937 4.815-1.937 1.888 0 3.5.646 4.836 1.937 1.336 1.291 2.003 2.852 2.003 4.682 0 1.83-.667 3.39-2.003 4.68-1.336 1.292-2.947 1.938-4.836 1.938-1.874 0-3.48-.646-4.815-1.937-1.336-1.291-2.003-2.852-2.003-4.681 0-1.83.667-3.39 2.003-4.682zm17.941 16.48c0 .383-.133.704-.399.963a1.319 1.319 0 0 1-.952.387H5.136c-.384 0-.705-.13-.963-.387a1.306 1.306 0 0 1-.388-.963V14.388h3.121a9.531 9.531 0 0 0-.442 2.9c0 2.834 1.033 5.25 3.099 7.25 2.066 1.999 4.552 2.999 7.46 2.999 1.918 0 3.689-.458 5.313-1.373a10.336 10.336 0 0 0 3.85-3.73 9.809 9.809 0 0 0 1.418-5.146 9.53 9.53 0 0 0-.443-2.9h2.988v14.344zm0-19.767c0 .428-.148.79-.443 1.084a1.474 1.474 0 0 1-1.085.443H24.77c-.428 0-.79-.148-1.085-.443a1.475 1.475 0 0 1-.442-1.084V5.313c0-.414.147-.771.442-1.074a1.458 1.458 0 0 1 1.085-.454h3.851c.428 0 .79.151 1.085.454.295.303.443.66.443 1.074v3.652z" fill="#383838"/></svg>