<svg width="34" height="34" viewBox="0 0 34 34" fill="none" xmlns="http://www.w3.org/2000/svg"><path d="M13.157 12.412h-3.72v2.969h3.478c.62 0 1.16-.162 1.16-1.592 0-1.43-.918-1.377-.918-1.377zm0 5.128h-3.72v3.777h3.505c.539 0 1.564-.216 1.564-1.835.026-1.916-1.349-1.943-1.349-1.943z" fill="#383838"/><path d="M25.453 0H8.52C3.83 0 0 3.832 0 8.527V25.5C0 30.168 3.829 34 8.52 34h16.96c4.69 0 8.52-3.832 8.52-8.527V8.527C33.973 3.832 30.144 0 25.453 0zm-5.5 10.794h5.662v1.349h-5.663v-1.35zM17.31 19.67c0 4.21-4.152 4.345-4.152 4.345H6.47V9.984h6.66c2.076 0 3.72 1.187 3.72 3.67 0 2.483-1.994 2.617-1.994 2.617 2.642-.027 2.453 3.4 2.453 3.4zm10.165-.242h-6.822c0 2.698 2.32 2.482 2.32 2.482 2.183 0 2.102-1.403 2.102-1.403h2.32c0 3.778-4.504 3.616-4.504 3.616-5.392 0-5.042-5.316-5.042-5.316s0-5.343 5.042-5.343c5.312-.027 4.584 5.964 4.584 5.964z" fill="#383838"/><path d="M22.945 15.406c-2.022 0-2.319 2.134-2.319 2.134h4.315s.026-2.134-1.996-2.134z" fill="#383838"/></svg>