<svg width="18" height="18" viewBox="0 0 18 18" fill="none" xmlns="http://www.w3.org/2000/svg">
<rect width="18" height="18" fill="black" fill-opacity="0"/>
<rect width="18" height="18" fill="black" fill-opacity="0"/>
<rect width="18" height="18" fill="black" fill-opacity="0"/>
<rect width="18" height="18" rx="2" fill="#383838"/>
<rect width="15.2542" height="15.4277" fill="black" fill-opacity="0" transform="translate(1 1)"/>
<path d="M14 8.5V14L8.5 14.5L3.5 14L3 4.5L4 3L14 4V8.5Z" fill="white"/>
<path d="M8.62712 1C4.41476 1 1 4.45358 1 8.71383C1 12.9741 4.41476 16.4277 8.62712 16.4277C12.8395 16.4277 16.2542 12.9741 16.2542 8.71383C16.2542 4.45358 12.8395 1 8.62712 1ZM5.76931 13.9365H3.62513V6.95926H5.76931V13.9365V13.9365ZM4.69769 6.0055C4.01043 6.0055 3.4541 5.44206 3.4541 4.74793C3.45425 4.05444 4.01043 3.49099 4.69769 3.49099C5.38308 3.49099 5.94019 4.05444 5.94019 4.74793C5.94019 5.44222 5.38292 6.0055 4.69769 6.0055ZM13.8 13.9365H11.6575V10.5434C11.6575 9.73418 11.6427 8.69347 10.543 8.69347C9.42783 8.69347 9.25633 9.57478 9.25633 10.4848V13.9363H7.11402V6.95926H9.1705V7.91269H9.19937C9.48573 7.36408 10.1848 6.7858 11.2281 6.7858C13.3992 6.7858 13.8 8.23087 13.8 10.1095V13.9365Z" fill="#383838"/>
</svg>
