<svg xmlns="http://www.w3.org/2000/svg" viewBox="0 0 124.54 152.68"><path d="M96.57 144.63v.06a16 16 0 0 1-21.83 5.85c-10.44-6-6.26-20.43-21.68-27.24-10-4.39-17.66-.47-25.73 1-13 2.44-25.68-5.76-27.18-19.23-1.3-11.65 6.16-23 17.81-25.3 7-1.42 14.63-.28 23.19-4.64 9.79-5 14.08-11.94 16.15-19.65 3.5-13.08.6-28.35 7.15-40 9.8-17.41 37.43-21.22 51.63-5.81 16.17 17.54 8 47.6-14.48 54.09-9.64 2.79-20.18 1.17-29.86 2.95-8.1 1.48-15.6 5.33-21.5 16.1-6.63 12.11-5.77 25.73 5.84 34.51 13.64 10.32 24.2-.7 34.71 5.37a16 16 0 0 1 5.85 21.83z" fill="#f1f1f1"/></svg>