<svg width="201" height="60" viewBox="0 0 201 60" xmlns="http://www.w3.org/2000/svg"><title>frontier-infrastructure-logo</title><g fill="#FFF"><path d="M75.952 33.593v-2.34h3.064v2.34h-3.064zm0 11.374V34.681h3.064v10.286h-3.064zm11.763 0v-5.604c0-1.154-.23-2.143-1.615-2.143-1.416 0-1.746.923-1.746 2.143v5.604H81.29V34.681h2.866v1.088h.033c.66-1.055 1.549-1.45 2.801-1.45.857 0 1.977.33 2.636.89.989.824 1.186 2.11 1.186 3.33v6.428h-3.097zm8.6-7.945v7.945h-3.064v-7.945h-1.153v-2.34h1.153v-.528c0-2.506 1.78-3.165 3.921-3.165h.428v2.308c-1.12 0-1.285.23-1.285 1.384H97.6v2.341h-1.285zm5.865 2.308v5.637h-3.064V34.681h2.9v1.088h.033c.527-1.055 1.384-1.45 2.57-1.45v3.099c-1.384.033-2.439.296-2.439 1.912zm11.401 5.637v-1.12h-.032c-.56 1.054-1.879 1.45-2.999 1.45-3.163 0-5.173-2.44-5.173-5.506 0-3 2.076-5.472 5.173-5.472 1.12 0 2.372.428 2.999 1.45h.032v-1.088h3.065v10.286h-3.065zm-2.603-7.747c-1.515 0-2.537 1.187-2.537 2.637 0 1.418 1.12 2.605 2.57 2.605 1.516 0 2.57-1.154 2.57-2.638 0-1.516-1.087-2.604-2.603-2.604zm11.599 8.11c-2.142 0-3.954-1.154-4.185-3.396h3.065c.099.626.56.956 1.153.956.461 0 1.087-.264 1.087-.791 0-.725-.823-.956-1.384-1.187a21.52 21.52 0 0 1-1.318-.461c-1.219-.429-2.438-1.253-2.438-2.67 0-2.144 2.01-3.396 3.987-3.396 2.043 0 3.756 1.055 3.954 3.23h-3.031c-.033-.56-.429-.79-.956-.79-.395 0-.857.23-.857.691 0 1.616 5.174.693 5.174 4.352-.066 2.275-2.175 3.462-4.251 3.462zm9.49-8.308v7.945h-3.065v-7.945h-1.515v-2.34h1.515v-3.43h3.065v3.43h1.483v2.34zm5.997 2.308v5.637H135V34.681h2.9v1.088h.032c.527-1.055 1.384-1.45 2.57-1.45v3.099c-1.35.033-2.438.296-2.438 1.912zm10.281 5.637v-1.088h-.033c-.528 1.121-1.516 1.418-2.67 1.418-1.12 0-2.273-.396-3.03-1.286-.825-1.022-.923-1.88-.923-3.165v-6.165h3.064v5.704c0 1.153.264 2.044 1.647 2.044 1.286 0 1.747-.924 1.747-2.077v-5.638h3.064V45h-2.866v-.033zm10.148.33a5.472 5.472 0 0 1-5.502-5.506c0-3.033 2.372-5.472 5.437-5.472 2.636 0 4.91 1.714 5.436 4.318h-3.097c-.428-.956-1.252-1.45-2.307-1.45-1.482 0-2.372 1.22-2.372 2.604 0 1.45.956 2.605 2.438 2.605 1.022 0 1.747-.495 2.208-1.385h3.13c-.593 2.571-2.767 4.286-5.37 4.286zm10.677-8.275v7.945h-3.065v-7.945h-1.516v-2.34h1.516v-3.43h3.065v3.43h1.482v2.34zm9.49 7.945v-1.088h-.034c-.527 1.121-1.515 1.418-2.669 1.418-1.12 0-2.273-.396-3.031-1.286-.824-1.022-.923-1.88-.923-3.165v-6.165h3.065v5.704c0 1.153.263 2.044 1.647 2.044 1.285 0 1.747-.924 1.747-2.077v-5.638h3.064V45h-2.867v-.033zm8.27-5.637v5.637h-3.064V34.681h2.9v1.088h.032c.527-1.055 1.384-1.45 2.57-1.45v3.099c-1.384.033-2.438.296-2.438 1.912zm13.872 1.45h-7.71c.198 1.22 1.219 1.945 2.405 1.945.824 0 1.384-.33 1.878-.956h3.164c-.89 2.044-2.702 3.56-5.009 3.56a5.444 5.444 0 0 1-5.437-5.439c0-2.967 2.373-5.505 5.404-5.505 3.163 0 5.437 2.505 5.437 5.604-.066.23-.066.495-.132.791zm-5.338-3.857c-1.12 0-2.109.66-2.34 1.747h4.68c-.23-1.088-1.22-1.747-2.34-1.747zM79.148 17.407v7.945h-3.065v-7.945H74.93v-2.341h1.153v-.528c0-2.505 1.78-3.164 3.922-3.164h.428v2.307c-1.12 0-1.285.231-1.285 1.385h1.285v2.34h-1.285zm5.832 2.274v5.638h-3.064V15.066h2.9v1.088h.032c.528-1.055 1.384-1.45 2.57-1.45v3.098c-1.35.033-2.438.297-2.438 1.88zm8.732 5.967c-3.163 0-5.536-2.307-5.536-5.472 0-3.165 2.373-5.473 5.536-5.473 3.163 0 5.536 2.308 5.536 5.473s-2.373 5.472-5.536 5.472zm0-8.044c-1.417 0-2.471 1.22-2.471 2.605 0 1.384 1.021 2.604 2.471 2.604 1.45 0 2.471-1.22 2.471-2.604 0-1.385-1.021-2.605-2.47-2.605zm13.741 7.748v-5.605c0-1.154-.231-2.143-1.615-2.143-1.417 0-1.746.923-1.746 2.143v5.605h-3.065V15.066h2.867v1.088h.033c.659-1.055 1.549-1.45 2.8-1.45.857 0 1.978.329 2.637.89.988.824 1.186 2.11 1.186 3.33v6.428h-3.097zm8.897-7.945v7.945h-3.065v-7.945h-1.516v-2.341h1.516v-3.429h3.064v3.429h1.483v2.34zm2.932-3.429v-2.34h3.064v2.34h-3.064zm0 11.374V15.066h3.064v10.286h-3.064zm15.52-4.22h-7.71c.197 1.22 1.218 1.945 2.405 1.945.823 0 1.384-.33 1.878-.956h3.163c-.89 2.044-2.702 3.56-5.008 3.56a5.444 5.444 0 0 1-5.437-5.44c0-2.966 2.372-5.505 5.404-5.505 3.163 0 5.437 2.506 5.437 5.605-.066.263-.066.527-.132.79zm-5.338-3.824c-1.12 0-2.11.659-2.34 1.747h4.68c-.231-1.088-1.22-1.747-2.34-1.747zm10.149 2.373v5.638h-3.065V15.066h2.9v1.088h.033c.527-1.055 1.384-1.45 2.57-1.45v3.098c-1.351.033-2.438.297-2.438 1.88zM44.187 37.45a20.25 20.25 0 0 1-6.327-1.021c3.329 2.34 7.217 3.362 11.566 3.066 4.547-.33 8.304-2.011 9.72-2.737.43-1.813.66-3.692.726-5.571-1.714 1.45-4.152 3.165-7.118 4.45-2.34.99-5.272 1.814-8.567 1.814z"/><path d="M47.976 42.824c-5.568 0-12.653-2.01-18.254-10.187L10.05 52.286c5.503 4.912 12.488 7.615 19.935 7.615.593 0 1.22-.033 1.813-.066 11.829-.692 21.912-8.176 26.097-18.956-2.076.791-4.943 1.648-8.205 1.88-.56.065-1.12.065-1.714.065zm-45.01 0a29.688 29.688 0 0 0 4.744 7.154l19.244-19.22C11.4 26.308 4.382 39.66 2.966 42.824z"/><path d="M6.656 32.209c3.064-2.802 7.645-5.539 13.84-5.67-3.922-1.121-7.909-.825-11.962.923C4.35 29.275 1.351 32.11.264 33.23a28.09 28.09 0 0 0 1.12 5.505c1.153-1.912 2.867-4.351 5.272-6.527zm46.691-4.385c-3.064 2.802-7.644 5.539-13.806 5.67 3.921 1.121 7.908.825 11.928-.923 4.185-1.813 7.183-4.615 8.27-5.769a28.136 28.136 0 0 0-1.12-5.505c-1.153 1.912-2.866 4.351-5.272 6.527z"/><path d="M57.038 17.242a29.688 29.688 0 0 0-4.745-7.154L33.05 29.308c15.552 4.417 22.571-8.934 23.988-12.066zM30.282 27.396L49.953 7.747C44.451 2.835 37.465.132 30.051.132c-.593 0-1.219.033-1.812.066C16.409.89 6.327 8.374 2.142 19.154c2.076-.791 4.942-1.649 8.205-1.88 5.766-.428 13.773 1.089 19.935 10.122z"/><path d="M22.11 23.604C13.378 17.505 3.394 21.99.857 23.308a28.666 28.666 0 0 0-.725 5.571c1.713-1.45 4.152-3.165 7.117-4.45 3.79-1.616 8.996-2.704 14.861-.825z"/></g></svg>