<svg xmlns="http://www.w3.org/2000/svg" viewBox="0 0 512 512"><defs><style>.a,.b{fill:none;stroke:#449fdb}.a{opacity:.3;isolation:isolate}.c{fill:#fff}</style></defs><title>share</title><path class="a" d="M16 0v512"/><path class="b" d="M32 0v512"/><path class="a" d="M48 0v512"/><path class="b" d="M64 0v512"/><path class="a" d="M80 0v512"/><path class="b" d="M96 0v512"/><path class="a" d="M112 0v512"/><path class="b" d="M128 0v512"/><path class="a" d="M144 0v512"/><path class="b" d="M160 0v512"/><path class="a" d="M176 0v512"/><path class="b" d="M192 0v512"/><path class="a" d="M208 0v512"/><path class="b" d="M224 0v512"/><path class="a" d="M240 0v512"/><path class="b" d="M256 0v512"/><path class="a" d="M272 0v512"/><path class="b" d="M288 0v512"/><path class="a" d="M304 0v512"/><path class="b" d="M320 0v512"/><path class="a" d="M336 0v512"/><path class="b" d="M352 0v512"/><path class="a" d="M368 0v512"/><path class="b" d="M384 0v512"/><path class="a" d="M400 0v512"/><path class="b" d="M416 0v512"/><path class="a" d="M432 0v512"/><path class="b" d="M448 0v512"/><path class="a" d="M464 0v512"/><path class="b" d="M480 0v512"/><path class="a" d="M496 0v512M0 16h512"/><path class="b" d="M0 32h512"/><path class="a" d="M0 48h512"/><path class="b" d="M0 64h512"/><path class="a" d="M0 80h512"/><path class="b" d="M0 96h512"/><path class="a" d="M0 112h512"/><path class="b" d="M0 128h512"/><path class="a" d="M0 144h512"/><path class="b" d="M0 160h512"/><path class="a" d="M0 176h512"/><path class="b" d="M0 192h512"/><path class="a" d="M0 208h512"/><path class="b" d="M0 224h512"/><path class="a" d="M0 240h512"/><path class="b" d="M0 256h512"/><path class="a" d="M0 272h512"/><path class="b" d="M0 288h512"/><path class="a" d="M0 304h512"/><path class="b" d="M0 320h512"/><path class="a" d="M0 336h512"/><path class="b" d="M0 352h512"/><path class="a" d="M0 368h512"/><path class="b" d="M0 384h512"/><path class="a" d="M0 400h512"/><path class="b" d="M0 416h512"/><path class="a" d="M0 432h512"/><path class="b" d="M0 448h512"/><path class="a" d="M0 464h512"/><path class="b" d="M0 480h512"/><path class="a" d="M0 496h512"/><path class="c" d="M432 352a79.74 79.74 0 0 0-57.51 24.42L159 268.66a80.05 80.05 0 0 0 0-25.33l215.5-107.75A80 80 0 1 0 352 80a80.56 80.56 0 0 0 1 12.66L137.51 200.42a80 80 0 1 0 0 111.17L353 419.34A80 80 0 1 0 432 352z"/></svg>